<?xml version="1.0" encoding="utf-8"?>
<!-- Generator: Adobe Illustrator 19.0.0, SVG Export Plug-In . SVG Version: 6.00 Build 0)  -->
<svg version="1.1" id="Layer_1" xmlns="http://www.w3.org/2000/svg" xmlns:xlink="http://www.w3.org/1999/xlink" x="0px" y="0px"
	 width="1400px" height="980px" viewBox="394 -94 1400 980" enable-background="new 394 -94 1400 980" xml:space="preserve">
<g id="XMLID_179_">
	<path id="XMLID_156_" fill="#FFD655" d="M790.7,205.1c0.8-0.9,61.5,0,61.5,0l-59.6,25L790.7,205.1z"/>
	<g id="XMLID_154_">
		<path id="XMLID_159_" fill="#AD7745" d="M788.3,200.5c-14.1-39.2-80.8-52.4-104.5,13.4c-0.1,0.4-5.5-1.4-14.1-3.3l2.2,4.3
			c0,0-81.5-4.2-106,68.7c-9.3,27.6-3.5,53.3,7.1,74.5c19.6,10.3,44.3,14.1,68.5,9.8c0,0,43.3,12.2,73.8,0c0,0-0.4-8.9,2.3-8.9
			c2.6,0,40.1-2.8,48.2-7.2l-9.8-20.3c0,0,20.4-24.9,21.5-67.4C777.5,264.1,802.4,239.7,788.3,200.5z"/>
		<path id="XMLID_160_" fill="#84512A" d="M565.9,283.6c24.5-72.8,106-68.7,106-68.7l-2.2-4.3c-27.5-5.9-88.5-12.8-121.4,44.5
			c-27.5,47.8-9.2,85.1,24.8,103C562.3,336.9,556.6,311.2,565.9,283.6z"/>
	</g>
	<path id="XMLID_296_" fill="none" d="M741.1,350.1c6.6-0.6,12.3-1.8,16.2-2.8c-0.9-2.8-1.8-5.2-2.8-7.2
		C750.6,343.8,746.2,347.1,741.1,350.1z"/>
	<path id="XMLID_306_" fill="none" d="M798.8,208.4c0.9,3.6,1.5,7.5,1.6,11.7c17.1-3.7,31.1-8.1,41.5-12
		C822.7,207.1,804.9,208,798.8,208.4z"/>
	<path id="XMLID_310_" fill="none" d="M731.4,175.5c-34.6,5.1-39.1,37.4-39.3,38.8c-0.2,1.9-1.4,3.6-3,4.5c-1.7,0.9-3.7,1-5.4,0.2
		c-0.2-0.1-18.7-8.3-43.1-8.8c-0.9,0-1.8,0-2.7,0c-31,0-56.8,12.3-77,36.6c-22.4,27-24.4,62.5-4.9,90.3
		c19.2,27.5,52.4,37.8,84.6,26.3c1.1-0.4,2.2-0.5,3.3-0.2c12.5,2.7,47.3,7.6,64.8,0.1c0.1-1.8,0-4.3-0.6-7.1l0,0
		c-2.7-10-13.1-19.5-17.5-22.7c-2.7-2-3.3-5.7-1.3-8.4c2-2.7,5.7-3.3,8.4-1.3c0.7,0.5,13.9,10.3,20,23.8c13.7-4.2,25-11.1,33.7-20.8
		c0.1-0.1,0.2-0.3,0.3-0.4c6.4-7.1,11.4-15.7,15.1-25.7c3.4-9.5,5-18.6,5.6-25.5c-6.5,4.1-15.5,8-26.6,8.7c-0.1,0-0.2,0-0.4,0
		c-3.2,0-5.8-2.5-6-5.7c-0.2-3.3,2.3-6.2,5.7-6.4c17.2-1,28.4-12.5,29.9-14.1c14.8-20.6,17.5-41.1,7.4-57.9
		C772.2,182.8,750.8,172.6,731.4,175.5z M748.8,212.4c-4,0-7.2-3.2-7.2-7.2s3.2-7.2,7.2-7.2s7.2,3.2,7.2,7.2
		C756,209.1,752.8,212.4,748.8,212.4z"/>
	<path id="XMLID_324_" fill="#44372F" d="M866.6,198.4c-31.4-4.9-69.4-2.1-71-1.9c-0.4,0-0.8,0.1-1.2,0.2c-0.6-1.2-1.2-2.3-1.8-3.3
		c-12.5-20.9-39-33.5-63-29.9c-22.9,3.4-35.2,16.6-41.4,27.1c-3.3,5.5-5.2,10.7-6.4,14.8c-8.1-2.8-22.8-6.8-40.5-7.3
		c-24.9-0.7-60.7,5.9-89.7,40.9c-26,31.3-28.2,72.5-5.5,104.9c10.3,14.7,25,25.9,41.5,31.7c8.6,3,17.7,4.5,26.8,4.5
		c9.5,0,19.1-1.6,28.6-4.8c8.6,1.7,46.8,8.4,69.5-0.6l14.5,18.1l-1.4,3.2c-1.3,3,0,6.6,3.1,7.9c0.8,0.3,1.6,0.5,2.4,0.5
		c2.3,0,4.5-1.3,5.5-3.6l2-4.6l16.6-9.1c2.9-1.6,4-5.3,2.4-8.2c-1.6-2.9-5.3-4-8.2-2.4l-8.6,4.7l0.5-6.3c0.3-3.3-2.2-6.2-5.5-6.5
		c-3.3-0.3-6.2,2.2-6.5,5.5L729,376l-8.6-10.7c0.1-0.9,0.1-2.1,0.1-3.4c3.9,0.5,7.7,0.7,11.4,0.7c15.9,0,29.1-3.6,33.3-4.9l24.2,6.4
		l0.8,3.4c0.6,2.8,3.1,4.7,5.9,4.7c0.4,0,0.9,0,1.3-0.2c3.2-0.7,5.3-4,4.5-7.2l-1.1-4.9l7.9-17.1c1.4-3,0.1-6.6-2.9-8
		s-6.6-0.1-8,2.9l-4.1,8.9l-3.4-5.4c-1.8-2.8-5.5-3.7-8.3-1.9c-2.8,1.8-3.7,5.5-1.9,8.3l1.2,1.9l-11.7-3.1
		c-1.9-6.9-4.4-12.1-6.3-15.5c7.1-8.8,11.8-18.3,14.8-26.7c6.4-17.8,6.8-34,6.7-39.8c8.3-11.6,12.7-22.3,14.5-31.8
		c43.2-8.9,68.3-22.4,69.3-23c2.3-1.2,3.5-3.8,3-6.3C871.2,200.8,869.2,198.8,866.6,198.4z M741.1,350.1c5-3,9.5-6.3,13.4-9.9
		c0.9,2,1.9,4.4,2.8,7.2C753.5,348.3,747.8,349.5,741.1,350.1z M774.8,257.6c-1.5,1.6-12.7,13.1-29.9,14.1c-3.3,0.2-5.9,3-5.7,6.4
		c0.2,3.2,2.8,5.7,6,5.7c0.1,0,0.2,0,0.4,0c11.1-0.7,20.1-4.6,26.6-8.7c-0.7,6.9-2.2,16-5.6,25.5c-3.6,10-8.7,18.6-15.1,25.7
		c-0.1,0.1-0.2,0.3-0.3,0.4c-8.8,9.6-20,16.6-33.7,20.8c-6.1-13.5-19.3-23.3-20-23.8c-2.7-2-6.5-1.4-8.4,1.3c-2,2.7-1.4,6.5,1.3,8.4
		c4.3,3.2,14.8,12.7,17.5,22.7l0,0c0.6,2.7,0.7,5.3,0.6,7.1c-17.5,7.5-52.2,2.6-64.8-0.1c-1.1-0.2-2.2-0.2-3.3,0.2
		c-32.1,11.5-65.3,1.1-84.6-26.3c-19.4-27.8-17.5-63.2,4.9-90.3c20.2-24.3,46-36.6,77-36.6c0.9,0,1.8,0,2.7,0
		c24.4,0.6,42.9,8.8,43.1,8.8c1.7,0.8,3.8,0.7,5.4-0.2c1.7-0.9,2.8-2.6,3-4.5c0.2-1.4,4.7-33.7,39.3-38.8
		c19.4-2.9,40.8,7.3,50.9,24.2C792.3,216.4,789.6,236.9,774.8,257.6z M800.4,220.1c-0.1-4.3-0.7-8.2-1.6-11.7
		c6.1-0.4,24-1.2,43.1-0.3C831.5,211.9,817.5,216.4,800.4,220.1z"/>
	<circle id="XMLID_327_" fill="#44372F" cx="748.8" cy="205.1" r="7.2"/>
</g>
<g id="XMLID_180_">
	<path id="XMLID_157_" fill="#FFD655" d="M1118.3,149c0.8,0,66,21.8,66,21.8l-5.5,9.8l-65.3-12.6L1118.3,149z"/>
	<g id="XMLID_155_">
		<path id="XMLID_162_" fill="#AD7745" d="M1000.8,271.4c4.4,49.6,44.7,72.1,77.4,82.1c10.7-2.4,20.9-6.8,29.8-13.4
			c41.7-30.7,65.1-112.3-21-150.3c0,0,23.7-4,28.6-35.3s-38-67.9-81-32.1C1034.7,122.6,993.3,186.5,1000.8,271.4z"/>
		<path id="XMLID_163_" fill="#84512A" d="M981.1,296.2c12.2,46.4,57.9,66,97.2,57.4c-32.7-10.1-73-32.5-77.4-82.1
			c-7.5-85,33.9-148.9,33.9-148.9C991.8,158.3,965.6,237.2,981.1,296.2z"/>
	</g>
	<path id="XMLID_313_" fill="none" d="M1061.1,348.7c44.1,0,80-35.9,80-80c0-32-18.8-60.6-48.1-73.4c-4.3,1.6-9.6,3-15.7,3.4
		c-0.1,0-0.2,0-0.3,0c-3.2,0-5.8-2.5-6-5.7c-0.2-3.3,2.4-6.2,5.7-6.3c10.7-0.6,18.9-5.8,20-6.6c8.8-7.3,14-18.2,14-29.8
		c0-21.3-17.3-38.6-38.6-38.6c-3.9,0-7.8,0.6-11.6,1.8l0,0h-0.1c-1.9,0.6-3.7,1.3-5.5,2.2c0,0-0.1,0-0.1,0.1
		c-18.3,8.6-36.7,28.5-50.5,54.7c-14.7,28-22.9,60.1-22.9,90.5c0,0.2,0,0.4,0,0.6c-0.2,2.4-0.3,4.8-0.3,7.1
		C981.1,312.8,1016.9,348.7,1061.1,348.7z M1085,133.6c3.2,0,5.7,2.6,5.7,5.7s-2.6,5.7-5.7,5.7c-3.2,0-5.7-2.6-5.7-5.7
		S1081.9,133.6,1085,133.6z"/>
	<path id="XMLID_314_" fill="none" d="M1121.1,163.2c16.7,4.8,35,7.4,48.9,8.8c-17.6-9.5-37.4-15-47.4-17.4
		C1122.3,157.6,1121.8,160.4,1121.1,163.2z"/>
	<path id="XMLID_315_" fill="none" d="M1125.3,145.5c0.1,0.3,0.2,0.5,0.3,0.8C1125.5,146,1125.4,145.7,1125.3,145.5z"/>
	<circle id="XMLID_328_" fill="#44372F" cx="1085" cy="139.4" r="5.7"/>
	<path id="XMLID_331_" fill="#44372F" d="M1033.1,356.4l-0.8,26.2l-25.3-3.5c-3.3-0.4-6.3,1.9-6.8,5.1c-0.5,3.3,1.9,6.3,5.1,6.8
		l4.2,0.6l-2.9,0.9c-3.2,0.9-5,4.3-4.1,7.5c0.8,2.6,3.2,4.3,5.8,4.3c0.6,0,1.1-0.1,1.7-0.2l27.6-8.1l6.1,2.8
		c0.8,0.4,1.7,0.6,2.5,0.6c2.3,0,4.5-1.3,5.5-3.5c1.4-3,0.1-6.6-2.9-8l-4.6-2.1l0.8-26.3c5.2,0.9,10.6,1.4,16,1.4
		c4.4,0,8.8-0.3,13-0.9l0.8,25.8l-4.6,2.1c-3,1.4-4.3,5-2.9,8c1,2.2,3.2,3.5,5.5,3.5c0.8,0,1.7-0.2,2.5-0.6l6.1-2.8l27.6,8.1
		c0.6,0.2,1.1,0.2,1.7,0.2c2.6,0,5-1.7,5.8-4.3c0.9-3.2-0.9-6.5-4.1-7.5l-2.9-0.9l4.2-0.6c3.3-0.5,5.6-3.5,5.1-6.8s-3.5-5.6-6.8-5.1
		l-25.3,3.5l-0.8-25.3c38.7-10.9,67.1-46.5,67.1-88.6c0-33.8-18.3-64.4-47.4-80.5c4.4-3.9,8-8.6,10.8-13.7
		c34.1,10,73.6,11.2,75.3,11.3c0.1,0,0.1,0,0.2,0c2.5,0,4.7-1.5,5.6-3.8c0.9-2.4,0.3-5.1-1.7-6.7c-22.9-20-59-29.7-73.9-33
		c-3.9-24.1-24.8-42.6-50-42.6c-5.1,0-10.2,0.8-15,2.3c-0.1,0-0.2,0.1-0.3,0.1c-0.1,0-0.1,0-0.2,0.1c-2.4,0.8-4.7,1.7-7,2.8
		c-20.6,9.7-41,31.5-56,60c-15.6,29.6-24.2,63.6-24.3,95.9c-0.2,2.7-0.3,5.3-0.3,7.9C969,309.7,996,344.5,1033.1,356.4z
		 M1121.1,163.2c0.7-2.8,1.2-5.6,1.5-8.6c10,2.4,29.8,7.9,47.4,17.4C1156.1,170.6,1137.8,168,1121.1,163.2z M1125.5,146.3
		c-0.1-0.3-0.2-0.5-0.3-0.8C1125.4,145.7,1125.5,146,1125.5,146.3z M981.4,261.5c0-0.2,0-0.4,0-0.6c0-30.4,8.1-62.6,22.9-90.5
		c13.8-26.2,32.2-46.1,50.5-54.7c0,0,0.1,0,0.1-0.1c1.8-0.9,3.6-1.6,5.5-2.2h0.1l0,0c3.7-1.2,7.6-1.8,11.6-1.8
		c21.3,0,38.6,17.3,38.6,38.6c0,11.6-5.2,22.5-14,29.8c-1.2,0.8-9.3,6-20,6.6c-3.3,0.2-5.9,3-5.7,6.3c0.2,3.2,2.8,5.7,6,5.7
		c0.1,0,0.2,0,0.3,0c6-0.3,11.4-1.8,15.7-3.4c29.3,12.7,48.1,41.4,48.1,73.4c0,44.1-35.9,80-80,80c-44.1,0-80-35.9-80-80
		C981.1,266.3,981.2,263.9,981.4,261.5z"/>
</g>
<g id="XMLID_181_">
	<polygon id="XMLID_158_" fill="#FFD655" points="1580.8,323.3 1585.8,308 1641.3,326.5 1631.5,336.8 	"/>
	<g id="XMLID_161_">
		<path id="XMLID_166_" fill="#AD7745" d="M1526.9,256.2h-9.4c0,0-1.7-5.5-6.4-13.3l-0.3,0.2c0,0-145.6-70.8-169.2,53
			c0,0,7.3,17.7,39.8,42.1l-1.7,6.5l4.6,0.8c0,0,63.5,35.1,131.4-11c0,0,47.1,23,67.8-18.8C1604.1,273.9,1558.9,246.8,1526.9,256.2z
			"/>
		<path id="XMLID_167_" fill="#84512A" d="M1341.5,296.2c23.6-123.8,169.2-53,169.2-53l0.3-0.2c-11.1-18.1-38.5-48.5-98.8-48.5
			c-85.9,0-96.9,66.8-96.4,122.5l28.6,21.6l35.1,6.2l1.7-6.5C1348.8,313.9,1341.5,296.2,1341.5,296.2z"/>
	</g>
	<path id="XMLID_317_" fill="none" d="M1585.8,322.9c17,3.3,31.5,4.7,42.5,5.3c-15.5-7.6-30.6-13.4-37.7-16
		C1589.4,316,1587.7,319.6,1585.8,322.9z"/>
	<path id="XMLID_321_" fill="none" d="M1542.3,258.6c-6.2,0-12.1,1.4-17.6,4.3c-1.4,0.7-3.1,0.9-4.7,0.4c-1.5-0.5-2.8-1.6-3.5-3.1
		c-11.7-24.2-36.7-44.4-66.9-54c-37.1-11.8-76.1-5.9-99.4,15c-0.1,0.1-0.1,0.1-0.2,0.2c-28.9,24.1-33,72-28.8,94
		c4.5,4.7,24,23,57.8,23c0.5,0,1,0,1.5,0h0.1l0,0c0,0,0,0,0.1,0c0.2,0,0.4,0,0.6,0c0.1,0,0.1,0,0.2,0c0.2,0,0.3,0.1,0.5,0.1
		c0.1,0,0.1,0,0.2,0c0.2,0.1,0.4,0.1,0.6,0.2l0,0c0.2,0.1,0.4,0.2,0.6,0.3l0,0c6.7,3.5,13.8,6.5,21.1,8.8
		c40.6,12.9,82.7,4.7,104.7-20.4c2.2-2.5,5.9-2.8,8.4-0.7c6.9,5.8,15.7,8.9,24.7,8.9c21.3,0,38.5-17.3,38.5-38.5
		C1580.8,275.9,1563.5,258.6,1542.3,258.6z M1556.9,313.7c-3.2,0-5.7-2.6-5.7-5.7s2.6-5.7,5.7-5.7c3.2,0,5.7,2.6,5.7,5.7
		S1560.1,313.7,1556.9,313.7z"/>
	<path id="XMLID_336_" fill="#44372F" d="M1654.8,329.1c-23.3-14.5-53.2-25.7-62-28.9c0.1-1,0.1-2,0.1-3.1
		c0-27.9-22.7-50.6-50.6-50.6c-6.1,0-12,1.1-17.6,3.2c-14-24.8-40.3-45.2-71.4-55.1c-41.1-13.1-84.6-6.2-111,17.5
		c-18.9,15.8-27.3,38.8-31,55.4c-4.7,21.3-4,40.4-1.6,51.4l4.2,54.9l-9.9,5.6c-2.9,1.7-3.9,5.3-2.2,8.2c1.1,1.9,3.1,3,5.2,3
		c1,0,2-0.3,3-0.8l10.9-6.2l40.4,12.4c0.6,0.2,1.2,0.3,1.8,0.3c2.6,0,5-1.7,5.8-4.3c1-3.2-0.8-6.6-4-7.5l-16-4.9l11.3-1.4
		c3.3-0.4,5.6-3.4,5.2-6.7c-0.4-3.3-3.4-5.6-6.7-5.2l-33,4.1l-2.9-37.9c10.8,7.8,28.9,17.3,53.9,17.8l10.1,22.9l-5.4,1.5
		c-3.2,0.9-5.1,4.2-4.2,7.4c0.8,2.7,3.2,4.4,5.8,4.4c0.5,0,1.1-0.1,1.6-0.2l9.4-2.7l30.5,19.6c1,0.6,2.1,1,3.3,1c2,0,3.9-1,5.1-2.8
		c1.8-2.8,1-6.5-1.8-8.3l-11.5-7.4l7.6,0.8c3.3,0.3,6.3-2.1,6.6-5.4c0.3-3.3-2.1-6.3-5.4-6.6l-29.3-3l-6.7-15.2
		c2.8,1.1,5.6,2.1,8.4,3c13.9,4.4,28.1,6.6,41.7,6.6c28.3,0,54.4-9.3,71.9-26.5c8.2,5.4,17.9,8.3,27.8,8.3
		c13.7,0,26.2-5.5,35.3-14.4c0.5,0.3,1.1,0.5,1.7,0.6c27.1,5.6,48.4,6.7,60.8,6.7c7.4,0,11.7-0.4,12.1-0.4c2.6-0.2,4.7-2.1,5.3-4.6
		C1658,333,1656.9,330.4,1654.8,329.1z M1542.3,335.7c-9,0-17.8-3.2-24.7-8.9c-2.5-2.1-6.2-1.8-8.4,0.7
		c-22,25.1-64.1,33.3-104.7,20.4c-7.3-2.3-14.4-5.3-21.1-8.8l0,0c-0.2-0.1-0.4-0.2-0.6-0.3l0,0c-0.2-0.1-0.4-0.1-0.6-0.2
		c-0.1,0-0.1,0-0.2,0c-0.2,0-0.3-0.1-0.5-0.1c-0.1,0-0.1,0-0.2,0c-0.2,0-0.4,0-0.6,0c0,0,0,0-0.1,0l0,0h-0.1c-0.5,0-1,0-1.5,0
		c-33.8,0-53.3-18.3-57.8-23c-4.2-21.9-0.1-69.9,28.8-94c0.1-0.1,0.1-0.1,0.2-0.2c23.2-20.9,62.2-26.8,99.4-15
		c30.2,9.6,55.2,29.8,66.9,54c0.7,1.5,2,2.6,3.5,3.1s3.2,0.4,4.7-0.4c5.5-2.8,11.4-4.3,17.6-4.3c21.3,0,38.5,17.3,38.5,38.5
		C1580.8,318.4,1563.5,335.7,1542.3,335.7z M1585.8,322.9c2-3.3,3.6-6.9,4.8-10.7c7.1,2.6,22.2,8.4,37.7,16
		C1617.3,327.7,1602.8,326.2,1585.8,322.9z"/>
	<circle id="XMLID_338_" fill="#44372F" cx="1556.9" cy="308" r="5.7"/>
</g>
<g id="XMLID_176_">
	<polygon id="XMLID_165_" fill="#FFD655" points="567.2,609.5 585.8,620.2 555.7,686.1 549.1,683.7 	"/>
	<g id="XMLID_168_">
		<g id="XMLID_169_">
			<path id="XMLID_173_" fill="#AD7745" d="M790.7,532.6c-48.2-53-171.7-7-171.7-7l2.2-5.7c-4,3.5-5.9,5.7-5.9,5.7
				c-60.3,6.2-71.6,46.6-52.2,77.1c14.7,23.2,45.7,18.8,59.7,15.3c0,0,5.3-7.3,7-9c1.8-1.8,14.8-12.3,14.8-12.3s11.6,23.6,31.1,43.9
				c36,12,72,12.5,72,12.5c30.1-11.6,49.5-25.4,62-39C813.5,585.7,810.9,554.8,790.7,532.6z"/>
			<path id="XMLID_174_" fill="#84512A" d="M629.8,609c-1.8,1.8-7,9-7,9c4.4-1.1,7.2-2.1,7.2-2.1c13,11.3,29.4,19.2,45.8,24.7
				c-19.6-20.3-31.1-43.9-31.1-43.9S631.5,607.2,629.8,609z"/>
		</g>
		<path id="XMLID_172_" fill="#84512A" d="M832.1,554.5c0-9.8-10.5-75.7-93-75.7c-64.4,0-103.8,28.6-118,41.1l-2.2,5.7
			c0,0,123.5-46,171.7,7c20.2,22.2,22.9,53.1,19.1,81.6C834.6,587.2,832.1,561,832.1,554.5z"/>
	</g>
	<path id="XMLID_164_" fill="#FFF8D7" d="M568.1,740.1c-0.1-0.6-22.2-18.8,0.8-36.7s49.5,4.3,49.5,4.3s30.5-12.7,43.1,8.6
		s-31.3,34.5-31.3,34.5s-7.5,38-42.2,25C553.4,762.9,568.1,740.1,568.1,740.1z"/>
	<path id="XMLID_305_" fill="none" d="M737.3,484.5c-65.7-1.9-103,29.7-116,43.4c-1.3,1.4-3.2,2.1-5.1,1.8
		c-10.2-1.2-20.6,0.7-30.2,5.7c-11.5,6-20.3,15.5-24.6,26.9c-4.3,11.2-3.8,22.7,1.3,32.6c9.5,18.3,32.6,25.9,54.3,18.6
		c1.8-0.9,13.5-7,21.4-20c1.7-2.8,5.4-3.7,8.3-2c2.8,1.7,3.7,5.4,2,8.3c-4.3,7.1-9.5,12.5-14.2,16.4c29.2,16.7,58.8,24.3,80.1,27.7
		c-11-8.8-16.2-17.5-16.5-18c-1.7-2.9-0.7-6.6,2.1-8.2c2.9-1.7,6.5-0.7,8.2,2.1c0.2,0.3,11.5,18.8,36.2,26.9
		c18.5-5.2,66.1-26,76.8-63.4c7.1-24.6,3.6-49.8-9.2-67.3C798.1,496.4,772.1,485.6,737.3,484.5z M588.3,595.7c-4,0-7.2-3.2-7.2-7.2
		s3.2-7.2,7.2-7.2s7.2,3.2,7.2,7.2S592.3,595.7,588.3,595.7z"/>
	<path id="XMLID_316_" fill="none" d="M555.7,674.9c8-13.6,17.9-31.9,24.8-49.9c-5-1.8-9.7-4.3-14-7.4
		C563.5,628.9,558.7,649.7,555.7,674.9z"/>
	<circle id="XMLID_339_" fill="#44372F" cx="588.3" cy="588.5" r="7.2"/>
	<path id="XMLID_342_" fill="#44372F" d="M737.6,472.5c-67.3-1.9-107.3,29.3-123,45c-11.6-0.8-23.4,1.7-34.1,7.2
		c-14.1,7.3-24.9,19.2-30.3,33.3c-5.5,14.4-4.8,29.5,1.9,42.5c1.3,2.6,2.9,5,4.6,7.2c-3.1,10.7-12.6,47-15.2,91.3
		c-0.2,2.7,1.5,5.2,4.1,6.1c0.6,0.2,1.3,0.3,1.9,0.3c1.9,0,3.8-0.9,5-2.6c1.1-1.6,26.3-38.6,39.9-75c9.3,1.3,19.1,0.4,28.7-2.8
		c0,0,0,0,0.1,0c0.9-0.3,1.9-0.7,2.8-1c10.4,6.3,20.9,11.5,31.1,15.8l-3.7,17.7l-32.5,2.3c-3.3,0.2-5.8,3.1-5.6,6.4s3.1,5.8,6.4,5.6
		l12.5-0.9l-2.9,1.8c-2.8,1.7-3.7,5.5-2,8.3c1.1,1.9,3.1,2.9,5.1,2.9c1.1,0,2.2-0.3,3.1-0.9l21.8-13.4l5.7,1.3
		c0.5,0.1,0.9,0.2,1.4,0.2c2.7,0,5.2-1.9,5.9-4.7c0.8-3.2-1.3-6.5-4.5-7.2l-2.4-0.5l3-14.4c31,11.1,58,13.8,71.1,14.5l-8.6,28.4
		l-34.5,2.7c-3.3,0.3-5.8,3.2-5.5,6.5c0.3,3.3,3.2,5.8,6.5,5.5l15.9-1.2l-7.3,4.9c-2.8,1.9-3.5,5.6-1.6,8.4c1.2,1.7,3.1,2.7,5,2.7
		c1.2,0,2.3-0.3,3.4-1l23.7-16l5.8,2c0.7,0.2,1.3,0.3,2,0.3c2.5,0,4.8-1.6,5.7-4c1.1-3.1-0.6-6.6-3.7-7.7l-3.2-1.1l9.5-31.3
		c14.1-4.6,69.7-25.2,82.8-70.9c8.1-28.2,4-57.2-11-77.8C810.5,493,786.5,473.9,737.6,472.5z M555.7,674.9
		c3.1-25.2,7.9-46,10.8-57.4c4.2,3.1,8.9,5.6,14,7.4C573.6,643,563.7,661.4,555.7,674.9z M821.5,583.3
		c-10.8,37.5-58.3,58.2-76.8,63.4c-24.7-8.1-36-26.6-36.2-26.9c-1.7-2.9-5.4-3.8-8.2-2.1c-2.9,1.7-3.8,5.4-2.1,8.2
		c0.3,0.6,5.6,9.3,16.5,18c-21.2-3.4-50.9-10.9-80.1-27.7c4.7-3.9,9.8-9.3,14.2-16.4c1.7-2.8,0.8-6.5-2-8.3c-2.8-1.7-6.5-0.8-8.3,2
		c-8,13.1-19.6,19.1-21.4,20c-21.7,7.3-44.8-0.4-54.3-18.6c-5.1-9.9-5.6-21.5-1.3-32.6c4.4-11.4,13.1-21,24.6-26.9
		c9.5-4.9,20-6.9,30.2-5.7c1.9,0.2,3.8-0.5,5.1-1.8c13-13.7,50.4-45.3,116-43.4c34.8,1,60.8,11.9,75.1,31.4
		C825.2,533.5,828.6,558.7,821.5,583.3z"/>
	<path id="XMLID_347_" fill="#44372F" d="M668.5,715.9c-2.5-7.7-8.9-13.4-18.1-16.1c-8.4-2.5-18.3-2.2-27.8,0.9
		c-0.6,0.2-1.1,0.4-1.7,0.6c-1.9-1.8-4.2-3.4-6.7-4.8c-7.7-4.2-17.4-5.9-27.4-4.8c-21.7,2.3-37.4,16.6-35.8,32.6
		c0.7,6.5,4.1,12.1,9.5,16.4c-1.1,2-1.9,4.1-2.4,6.3c-3.4,15.7,10.7,31.6,32,36.2c3.8,0.8,7.6,1.2,11.2,1.2c5.9,0,11.5-1,16.5-3.1
		c8.9-3.6,14.7-10,16.4-17.9c0.5-2.3,0.6-4.6,0.4-6.8c1.8-0.4,3.7-0.9,5.5-1.5C661,748.4,673.4,731.2,668.5,715.9L668.5,715.9z
		 M622.5,760.9c-1.1,5.3-6.3,8.1-9.2,9.3c-5.8,2.4-13.3,2.8-20.6,1.2c-14.3-3.1-24.7-13.1-22.8-21.9c1.1-5.3,6.3-8.1,9.2-9.3
		c3.5-1.4,7.6-2.2,12-2.2c2.8,0,5.8,0.3,8.7,0.9C614,742.1,624.4,752.1,622.5,760.9z M588.1,703.7c1.5-0.2,2.9-0.2,4.4-0.2
		c5.9,0,11.6,1.3,16,3.7c2.8,1.5,7.6,4.9,8.2,10.2c0.5,4.4-2.1,8.7-6.5,12.2c-2.5-0.9-5.1-1.7-7.9-2.3c-9.8-2.1-19.6-1.5-27.7,1.8
		c-2,0.8-3.8,1.8-5.5,2.9c-3.4-2.4-5.6-5.4-6-8.9C562.1,714.1,573.6,705.2,588.1,703.7z M621.4,735.6c5.2-5.6,8-12.4,7.2-19.5
		c-0.2-1.5-0.5-2.9-0.9-4.3c3.6-1,7.3-1.6,10.8-1.6c3,0,5.8,0.4,8.4,1.1c3.1,0.9,8.4,3.2,10.1,8.3c2.8,8.5-6.6,19.6-20.5,24.1
		c-2,0.6-4,1.1-5.9,1.4C628.3,741.6,625.2,738.4,621.4,735.6z"/>
</g>
<g id="XMLID_171_">
	<polygon id="XMLID_175_" fill="#FFD655" points="941.3,540.7 998.9,516.8 1001.8,544.2 	"/>
	<g id="XMLID_170_">
		<path id="XMLID_177_" fill="#AD7745" d="M1190.6,609.5c-45.2-102.5-107.2-109.7-107.2-109.7s0.8-1.2,2.1-2.9
			c-0.6,0-0.9-0.1-0.9-0.1l-4-3.5c-24.4-19.6-70-19.3-80.1,19.8c-10,39.2,29.9,50.5,29.9,50.5s-18,37.3,14.8,89.1
			c32.8,51.8,94.5,44.4,94.5,44.4l21.5,5.6l6,5l3-5c10.6-3.6,19.3-8.4,26.5-14C1201.5,659.6,1200.6,632.1,1190.6,609.5z"/>
		<path id="XMLID_178_" fill="#84512A" d="M1229,624.8c0-113.6-131.6-127-143.5-128c-1.3,1.8-2.1,2.9-2.1,2.9s62,7.3,107.2,109.7
			c10,22.7,10.8,50.1,6.1,79.1C1228.7,663.7,1229,624.8,1229,624.8z"/>
	</g>
	<path id="XMLID_307_" fill="none" d="M953.8,539.6c16.9-0.2,32.6-1.7,40.3-2.6c-0.9-3.7-1.5-7.5-1.6-11.3
		C976.6,530.2,963.5,535.3,953.8,539.6z"/>
	<path id="XMLID_357_" fill="#44372F" d="M1153.6,503.9c-21.3-9.7-44.8-14.1-70-13c-9.8-11.6-24.3-18.4-39.5-18.4
		c-24.6,0-45.2,17.3-50.4,40.4C951.8,524.3,928,539,927,539.7c-2.2,1.4-3.2,4-2.6,6.5c0.6,2.5,2.7,4.4,5.3,4.6
		c7,0.6,14.2,0.9,21.3,0.9c21.4,0,41.4-2.3,47.7-3.1c5.3,9.8,13.8,17.8,24.3,22.5c-1.1,15.5-1.8,65.3,29.7,100.5
		c10,11.2,22.3,19.8,36.8,25.7c1.3,1.3,7.9,7.7,18.4,12.3l0.8,13.6l-23.4,0.9c-3.3,0.1-5.9,2.9-5.8,6.2c0.1,3.3,2.9,5.9,6.2,5.8
		l4.1-0.2c-0.5,1.4-0.5,3,0.2,4.5c1,2.2,3.2,3.5,5.5,3.5c0.8,0,1.7-0.2,2.5-0.5l17.9-8.1l4.2,0.8c0.4,0.1,0.7,0.1,1.1,0.1
		c2.9,0,5.4-2,5.9-5c0.6-3.3-1.6-6.4-4.9-7l-1.4-0.3l-0.8-13.6c2.5-0.7,5.8-1.9,10-3.7c5,0.4,10.2,0.6,15.5,0.6c1.3,0,2.6,0,4,0
		c0.3,0,0.7,0,1-0.1c3.1,2.5,6.4,4.5,9.8,6.1l1.6,22.2l-29.7,5.2c-3.3,0.6-5.5,3.7-4.9,7s3.7,5.5,7,4.9l5.7-1
		c-0.6,1.6-0.5,3.4,0.5,5c1.1,1.9,3.1,3,5.2,3c1,0,2.1-0.3,3-0.8l20.5-11.9l4.8,1.2c0.5,0.1,1,0.2,1.4,0.2c2.7,0,5.2-1.8,5.9-4.6
		c0.8-3.2-1.2-6.5-4.4-7.3l-2.9-0.7l-1.6-22.3c12.3-4.7,44.3-21.3,58.1-69.6c8.6-30.4-1.6-69.7-26.2-100.2
		C1190.7,526.5,1173.2,512.8,1153.6,503.9z M1218.9,640.3c-6.2,21.9-17.3,39.2-32.7,51.2c-8.8,6.8-16.6,10-19.9,11.1
		c-8-3.4-14.3-10.2-18.2-15.5c-1.2-1.6-3-2.4-4.8-2.4c-1.1,0-2.3,0.3-3.3,1c-2.7,1.8-3.5,5.3-1.8,8.1l0.7,1.2
		c-33.5-1.2-59.4-11.8-77-31.4c-27.7-30.8-27.6-76.1-26.8-90.9c2.8,0.4,5.9,0.6,9.1,0.6c4.9,0,10.1-0.6,15.4-2
		c3.2-0.9,5.1-4.2,4.2-7.4c-0.9-3.2-4.2-5.1-7.4-4.2c-15.2,4.3-30.8-1.4-33.2-2.3c-11.3-7.1-18.4-19.7-18.4-33.4
		c0-21.8,17.7-39.6,39.6-39.6c12.5,0,24.4,6,31.9,16.1c1.2,1.6,3,2.5,4.9,2.5c0.2,0,0.3,0,0.5,0c62.2-3.8,97.8,28.4,113.5,47.9
		C1217,578.5,1226.5,613.6,1218.9,640.3z M953.8,539.6c9.7-4.3,22.8-9.4,38.7-13.9c0.1,3.9,0.7,7.7,1.6,11.3
		C986.4,537.9,970.7,539.4,953.8,539.6z"/>
	<circle id="XMLID_359_" fill="#44372F" cx="1031.8" cy="511" r="7.2"/>
</g>
<g id="XMLID_182_">
	<polygon id="XMLID_184_" fill="#FFD655" points="1348.5,636.6 1354.6,659.2 1303.8,666.2 	"/>
	<g id="XMLID_183_">
		<path id="XMLID_186_" fill="#AD7745" d="M1551,582.4c-58.4-9-125.8,10.3-125.8,10.3s0.7-1.9,1.8-4.9c-5,2.9-7.5,4.9-7.5,4.9
			c-21.1-14.1-90.8-2.1-71,48s77.8,18.5,77.8,18.5c29.4,49.4,91.9,48.9,91.9,48.9l30.1,12.4c24.2,0.1,42.3-8.2,54.8-21.1
			c0.1-1.5,0.4-3.2,0.9-4.9C1612,668.2,1609.4,591.4,1551,582.4z"/>
		<path id="XMLID_187_" fill="#84512A" d="M1554.8,557.5c-68.4,0-111.4,20.7-127.7,30.3c-1.1,3-1.8,4.9-1.8,4.9
			s67.4-19.4,125.8-10.3c58.4,9,61,85.9,53.1,112.2c-0.5,1.8-0.8,3.4-0.9,4.9C1646.2,655.4,1623.9,557.5,1554.8,557.5z"/>
	</g>
	<path id="XMLID_318_" fill="none" d="M1345.3,646c-10.9,4.6-20.1,9.2-27.3,13.3c13-1.8,24.7-4.3,30.6-5.7
		C1347.2,651.1,1346.1,648.6,1345.3,646z"/>
	<path id="XMLID_365_" fill="#44372F" d="M1545.2,549.8c-43.6-1.2-81.9,4.6-126.5,36.3c-10.1-3.3-41.4-10.9-64.5,12.2
		c-8.8,8.8-12.7,22.3-11.4,35.7c-33.4,13.7-51.5,28-52.3,28.6c-2,1.6-2.8,4.3-1.9,6.8c0.9,2.4,3.1,4,5.7,4h0.1
		c27.7-0.6,59.7-8.7,61.1-9c0.3-0.1,0.5-0.2,0.7-0.2c6.8,7,15.7,11.4,26,12.7c12.6,1.7,26.8-1.2,42.3-8.5c3.1,5.1,8.8,12.9,18,20.6
		c10.7,9,28,19.4,53.6,23.1v9.4l-26.5-1.5c-3.3-0.2-6.2,2.4-6.4,5.7c-0.2,3.3,2.4,6.2,5.7,6.4h0.5c-0.1,0.7-0.1,1.3,0,2
		c0.5,2.9,3.1,4.9,5.9,4.9c0.4,0,0.8,0,1.1-0.1l25.5-4.8l6.6,1.4c0.4,0.1,0.8,0.1,1.2,0.1c2.8,0,5.3-2,5.9-4.8
		c0.7-3.3-1.4-6.4-4.7-7.1l-2.9-0.6v-9.7c2.8,0.2,5.6,0.3,8.6,0.3c6.5,6.2,15.7,11.7,28.3,13.6V741l-33.8-1.9
		c-3.3-0.2-6.2,2.4-6.4,5.7c-0.2,3.3,2.4,6.2,5.7,6.4l2.3,0.1c-0.4,1.1-0.6,2.3-0.4,3.5c0.5,2.9,3.1,4.9,5.9,4.9
		c0.4,0,0.8,0,1.1-0.1l31.5-6l8.3,1.7c0.4,0.1,0.8,0.1,1.2,0.1c2.8,0,5.3-2,5.9-4.8c0.7-3.3-1.4-6.4-4.7-7.1l-3.5-0.7l-1.2-0.2V739
		v-11.9c4.6-0.5,10.3-1.5,16.7-3.7c14.2-4.9,34.8-16.9,52.1-45.6c13.3-22.1,13-48.1-0.8-73.4
		C1608.3,573.5,1574.7,550.6,1545.2,549.8z M1570.6,711.8c-13.1,4.7-22.8,3.5-22.9,3.5c-10.7-1.5-18.3-6.3-23.5-11.5
		c-0.3-0.3-0.5-0.6-0.9-0.9c-7.2-7.7-9.6-16-9.8-16.7c-0.9-3.2-4.2-5.1-7.4-4.2c-3.2,0.9-5.1,4.2-4.3,7.4c0.1,0.5,1.6,5.6,5.2,11.8
		c-22.4-1.6-41.3-8.6-56.2-21c-8.6-7.1-13.7-14.4-16.3-18.6c3.9-2.7,7.7-5.8,10.7-9.3c2.2-2.5,2-6.3-0.5-8.5s-6.3-2-8.5,0.5
		c-7.6,8.6-22.5,15.5-26.9,17.2c-20.9,7.1-37.8,4-47.6-9.3c-10-13.7-9.6-34.9,0.9-45.4c8.9-9,20.7-13.1,34.9-12.4
		c11.1,0.6,19.6,4,19.7,4c1.9,0.8,4.2,0.5,5.9-0.7c43-31.4,79.7-37,121.7-35.9c25.1,0.7,55,21.5,69.7,48.3
		c6.8,12.4,15.9,36.8,1,61.4C1603.4,691.9,1588.2,705.4,1570.6,711.8z M1345.3,646c0.9,2.6,2,5.2,3.3,7.6
		c-5.8,1.3-17.5,3.9-30.6,5.7C1325.2,655.2,1334.4,650.5,1345.3,646z"/>
	<circle id="XMLID_368_" fill="#44372F" cx="1374.2" cy="618.5" r="6.3"/>
</g>
</svg>
