<?xml version="1.0" encoding="utf-8"?>
<!-- Generator: Adobe Illustrator 23.0.6, SVG Export Plug-In . SVG Version: 6.00 Build 0)  -->
<svg version="1.1" id="Layer_1" xmlns="http://www.w3.org/2000/svg" xmlns:xlink="http://www.w3.org/1999/xlink" x="0px" y="0px"
	 viewBox="0 0 288 288" style="enable-background:new 0 0 288 288;" xml:space="preserve">
<style type="text/css">
	.st0{fill:#FFD654;}
	.st1{fill:#AD7746;}
	.st2{fill:#855229;}
	.st3{fill:none;}
	.st4{fill:#45382F;}
</style>
<g id="XMLID_181_">
	<polygon id="XMLID_158_" class="st0" points="224.82,180.85 228.55,169.3 270.45,183.32 263.06,191.09 	"/>
	<g id="XMLID_161_">
		<path id="XMLID_166_" class="st1" d="M184.14,130.26h-7.11c0,0-1.3-4.16-4.86-10l-0.25,0.15c0,0-109.9-53.42-127.71,39.99
			c0,0,5.5,13.37,30.02,31.79l-1.27,4.92l3.47,0.61c0,0,47.94,26.53,99.19-8.34c0,0,35.53,17.34,51.16-14.21
			C242.4,143.62,208.3,123.16,184.14,130.26z"/>
		<path id="XMLID_167_" class="st2" d="M44.21,160.4c17.81-93.41,127.71-39.99,127.71-39.99l0.25-0.15
			c-8.34-13.7-29.09-36.61-74.53-36.61c-64.8,0-73.14,50.4-72.76,92.47l21.6,16.3l26.47,4.69l1.27-4.92
			C49.71,173.77,44.21,160.4,44.21,160.4z"/>
	</g>
	<path id="XMLID_317_" class="st3" d="M228.55,180.61c12.85,2.48,23.78,3.56,32.05,3.99c-11.67-5.74-23.08-10.12-28.42-12.08
		C231.29,175.37,230.06,178.08,228.55,180.61z"/>
	<path id="XMLID_321_" class="st3" d="M195.74,132.03c-4.67,0-9.14,1.08-13.28,3.21c-1.09,0.56-2.36,0.66-3.52,0.27
		c-1.16-0.39-2.12-1.23-2.65-2.33c-8.85-18.28-27.73-33.51-50.5-40.75c-28.02-8.91-57.45-4.46-74.99,11.33
		c-0.04,0.04-0.09,0.08-0.13,0.12c-21.82,18.15-24.91,54.37-21.77,70.91c3.36,3.54,18.15,17.37,43.62,17.37c0.37,0,0.74,0,1.11-0.01
		c0.02,0,0.04,0,0.07,0c0.01,0,0.02,0,0.03,0c0.02,0,0.03,0,0.05,0c0.15,0,0.3,0.01,0.45,0.03c0.04,0,0.09,0.01,0.13,0.02
		c0.13,0.02,0.26,0.04,0.38,0.07c0.04,0.01,0.09,0.02,0.13,0.03c0.15,0.04,0.3,0.09,0.45,0.14c0.01,0,0.02,0.01,0.03,0.01
		c0.16,0.06,0.32,0.13,0.47,0.21c0.01,0,0.02,0.01,0.02,0.01c5.05,2.66,10.41,4.9,15.95,6.66c30.64,9.74,62.39,3.56,78.99-15.39
		c1.63-1.86,4.44-2.08,6.33-0.5c5.21,4.35,11.82,6.74,18.62,6.74c16.04,0,29.09-13.05,29.09-29.09
		C224.82,145.08,211.78,132.03,195.74,132.03z M206.78,173.63c-2.4,0-4.34-1.94-4.34-4.34s1.94-4.34,4.34-4.34s4.34,1.94,4.34,4.34
		S209.18,173.63,206.78,173.63z"/>
	<path id="XMLID_336_" class="st4" d="M280.63,185.23c-17.55-10.97-40.17-19.43-46.79-21.8c0.05-0.77,0.08-1.54,0.08-2.32
		c0-21.05-17.13-38.18-38.18-38.18c-4.61,0-9.07,0.8-13.31,2.39c-10.58-18.73-30.4-34.09-53.89-41.56
		c-31-9.86-63.87-4.68-83.76,13.18c-14.25,11.9-20.57,29.3-23.37,41.82c-3.58,16.05-3,30.49-1.23,38.8l3.17,41.4l-7.45,4.26
		c-2.18,1.25-2.94,4.02-1.69,6.2c0.84,1.47,2.37,2.29,3.95,2.29c0.76,0,1.54-0.19,2.25-0.6l8.24-4.71l30.52,9.37
		c0.44,0.14,0.89,0.2,1.34,0.2c1.94,0,3.74-1.26,4.35-3.21c0.74-2.4-0.61-4.94-3.01-5.68l-12.11-3.72l8.54-1.07
		c2.49-0.31,4.26-2.58,3.95-5.08c-0.31-2.49-2.58-4.26-5.08-3.95l-24.87,3.1l-2.19-28.63c8.14,5.92,21.79,13.04,40.67,13.47
		l7.64,17.32l-4.06,1.15c-2.42,0.68-3.82,3.2-3.14,5.61c0.57,2,2.39,3.31,4.37,3.31c0.41,0,0.83-0.06,1.24-0.17l7.12-2.01l23,14.81
		c0.76,0.49,1.61,0.72,2.46,0.72c1.49,0,2.96-0.74,3.83-2.09c1.36-2.11,0.75-4.93-1.36-6.29l-8.7-5.6l5.77,0.6
		c2.5,0.26,4.73-1.55,4.99-4.05c0.26-2.5-1.55-4.73-4.05-4.99l-22.1-2.3l-5.06-11.47c2.09,0.81,4.2,1.56,6.34,2.24
		c10.52,3.34,21.19,4.96,31.47,4.96c21.36,0,41.05-6.99,54.23-19.97c6.2,4.08,13.51,6.29,20.99,6.29c10.36,0,19.76-4.15,26.64-10.87
		c0.39,0.22,0.82,0.38,1.29,0.47c20.46,4.22,36.5,5.03,45.86,5.03c5.59,0,8.8-0.29,9.13-0.32c1.94-0.19,3.54-1.59,3.99-3.48
		C283.1,188.24,282.28,186.26,280.63,185.23z M195.74,190.21c-6.79,0-13.4-2.39-18.62-6.74c-1.9-1.58-4.71-1.36-6.33,0.5
		c-16.6,18.95-48.35,25.13-78.99,15.39c-5.54-1.76-10.9-4-15.95-6.66c-0.01,0-0.02-0.01-0.02-0.01c-0.15-0.08-0.31-0.15-0.47-0.21
		c-0.01,0-0.02-0.01-0.03-0.01c-0.15-0.05-0.3-0.1-0.45-0.14c-0.04-0.01-0.09-0.02-0.13-0.03c-0.13-0.03-0.25-0.05-0.38-0.07
		c-0.04-0.01-0.09-0.01-0.13-0.02c-0.15-0.02-0.3-0.03-0.45-0.03c-0.02,0-0.03,0-0.05,0c-0.01,0-0.02,0-0.03,0
		c-0.02,0-0.04,0-0.07,0c-0.37,0.01-0.74,0.01-1.11,0.01c-25.47,0-40.26-13.83-43.62-17.37c-3.14-16.55-0.05-52.76,21.77-70.91
		c0.05-0.04,0.09-0.08,0.13-0.12c17.53-15.79,46.97-20.24,74.99-11.33c22.77,7.24,41.64,22.47,50.5,40.75
		c0.53,1.1,1.49,1.94,2.65,2.33c1.16,0.39,2.43,0.29,3.52-0.27c4.14-2.13,8.61-3.21,13.28-3.21c16.04,0,29.09,13.05,29.09,29.09
		C224.82,177.16,211.78,190.21,195.74,190.21z M228.55,180.61c1.51-2.53,2.73-5.24,3.63-8.09c5.34,1.96,16.75,6.34,28.42,12.08
		C252.33,184.17,241.41,183.09,228.55,180.61z"/>
	<path id="XMLID_338_" class="st4" d="M206.78,164.96c-2.4,0-4.34,1.94-4.34,4.34s1.94,4.34,4.34,4.34s4.34-1.94,4.34-4.34
		S209.18,164.96,206.78,164.96z"/>
</g>
</svg>
