<?xml version="1.0" encoding="utf-8"?>
<!-- Generator: Adobe Illustrator 23.0.6, SVG Export Plug-In . SVG Version: 6.00 Build 0)  -->
<svg version="1.1" id="Layer_1" xmlns="http://www.w3.org/2000/svg" xmlns:xlink="http://www.w3.org/1999/xlink" x="0px" y="0px"
	 viewBox="0 0 266.98 161.13" style="enable-background:new 0 0 266.98 161.13;" xml:space="preserve">
<style type="text/css">
	.st0{fill:#FFD654;}
	.st1{fill:#AD7746;}
	.st2{fill:#855229;}
	.st3{fill:none;}
	.st4{fill:#45382F;}
</style>
<g id="XMLID_182_">
	<polygon id="XMLID_184_" class="st0" points="52.11,68.65 56.49,85.18 19.48,90.27 	"/>
	<g id="XMLID_183_">
		<path id="XMLID_186_" class="st1" d="M199.88,29.07c-42.6-6.59-91.8,7.55-91.8,7.55s0.51-1.37,1.33-3.54
			c-3.63,2.15-5.45,3.54-5.45,3.54c-15.39-10.31-66.24-1.51-51.85,35.05s56.79,13.51,56.79,13.51c21.43,36.05,67.07,35.7,67.07,35.7
			l21.99,9.07c17.63,0.07,30.86-5.98,40.03-15.36c0.06-1.12,0.27-2.31,0.65-3.6C244.4,91.73,242.48,35.67,199.88,29.07z"/>
		<path id="XMLID_187_" class="st2" d="M202.62,10.93c-49.95,0-81.3,15.11-93.22,22.15c-0.82,2.18-1.33,3.54-1.33,3.54
			s49.2-14.15,91.8-7.55s44.52,62.67,38.75,81.91c-0.39,1.28-0.59,2.48-0.65,3.6C269.38,82.4,253.05,10.93,202.62,10.93z"/>
	</g>
	<path id="XMLID_318_" class="st3" d="M49.72,75.5c-7.96,3.33-14.64,6.72-19.93,9.68c9.52-1.31,18.05-3.14,22.32-4.12
		C51.16,79.27,50.36,77.41,49.72,75.5z"/>
	<path id="XMLID_365_" class="st4" d="M195.65,5.28c-31.79-0.88-59.76,3.33-92.34,26.49c-7.39-2.43-30.2-7.99-47.08,8.88
		c-6.41,6.41-9.23,16.3-8.35,26.09C23.53,76.71,10.3,87.18,9.73,87.64c-1.47,1.18-2.03,3.16-1.39,4.93c0.63,1.75,2.29,2.9,4.13,2.9
		c0.03,0,0.06,0,0.09,0c20.19-0.41,43.6-6.32,44.59-6.57c0.19-0.05,0.37-0.11,0.54-0.18c5,5.1,11.48,8.28,18.98,9.27
		c9.18,1.21,19.56-0.88,30.9-6.22c2.27,3.71,6.44,9.42,13.13,15.07c7.83,6.6,20.47,14.13,39.15,16.87v6.86l-19.31-1.1
		c-2.42-0.13-4.5,1.72-4.64,4.14c-0.14,2.42,1.72,4.5,4.14,4.64l0.38,0.02c-0.08,0.48-0.07,0.97,0.03,1.47
		c0.4,2.11,2.24,3.58,4.31,3.58c0.28,0,0.55-0.03,0.83-0.08l18.61-3.53l4.79,0.99c0.3,0.07,0.6,0.1,0.89,0.1
		c2.04,0,3.88-1.43,4.3-3.51c0.49-2.38-1.04-4.7-3.41-5.2l-2.14-0.45v-7.05c2.02,0.11,4.1,0.18,6.24,0.18
		c4.78,4.52,11.47,8.51,20.67,9.92v10l-24.67-1.41c-2.42-0.14-4.5,1.72-4.64,4.14c-0.14,2.42,1.72,4.5,4.14,4.64l1.68,0.1
		c-0.32,0.77-0.44,1.64-0.27,2.53c0.4,2.11,2.24,3.58,4.31,3.58c0.28,0,0.55-0.03,0.83-0.08l22.98-4.37l6.06,1.25
		c0.3,0.07,0.6,0.1,0.89,0.1c2.04,0,3.88-1.43,4.3-3.51c0.49-2.38-1.04-4.7-3.41-5.2l-2.55-0.52l-0.86-0.18v-2.33v-8.69
		c3.34-0.34,7.52-1.11,12.18-2.74c10.37-3.61,25.37-12.31,38.03-33.3c9.71-16.09,9.5-35.13-0.58-53.58
		C241.72,22.62,217.17,5.86,195.65,5.28z M214.15,123.53c-9.58,3.45-16.66,2.56-16.74,2.55c-7.83-1.08-13.35-4.58-17.17-8.43
		c-0.19-0.24-0.4-0.46-0.63-0.66c-5.24-5.61-7.03-11.71-7.16-12.19c-0.64-2.34-3.04-3.72-5.39-3.1c-2.35,0.63-3.73,3.04-3.11,5.39
		c0.1,0.38,1.13,4.06,3.82,8.64c-16.36-1.14-30.13-6.28-41.03-15.33c-6.28-5.22-10.02-10.53-11.87-13.59
		c2.84-1.98,5.61-4.25,7.85-6.79c1.61-1.82,1.43-4.6-0.39-6.2c-1.82-1.61-4.6-1.43-6.2,0.39c-5.53,6.27-16.44,11.33-19.6,12.56
		c-15.24,5.21-27.58,2.92-34.72-6.78c-7.33-9.97-7.02-25.44,0.67-33.13c6.53-6.54,15.11-9.58,25.5-9.06
		c8.09,0.41,14.3,2.92,14.36,2.95c1.42,0.59,3.04,0.4,4.28-0.5c31.38-22.89,58.2-27.01,88.82-26.18
		c18.29,0.5,40.17,15.68,50.89,35.29c4.93,9.03,11.6,26.86,0.77,44.81C238.11,109.01,227.03,118.9,214.15,123.53z M49.72,75.5
		c0.64,1.91,1.43,3.77,2.38,5.56c-4.27,0.98-12.8,2.81-22.32,4.12C35.08,82.21,41.76,78.83,49.72,75.5z"/>
	<path id="XMLID_368_" class="st4" d="M70.84,50.89c-2.53,0-4.58,2.05-4.58,4.57c0,2.53,2.05,4.57,4.58,4.57
		c2.53,0,4.57-2.05,4.57-4.57C75.41,52.94,73.36,50.89,70.84,50.89z"/>
</g>
</svg>
