<?xml version="1.0" encoding="utf-8"?>
<!-- Generator: Adobe Illustrator 23.0.6, SVG Export Plug-In . SVG Version: 6.00 Build 0)  -->
<svg version="1.1" id="Layer_1" xmlns="http://www.w3.org/2000/svg" xmlns:xlink="http://www.w3.org/1999/xlink" x="0px" y="0px"
	 viewBox="0 0 288 288" style="enable-background:new 0 0 288 288;" xml:space="preserve">
<style type="text/css">
	.st0{fill:#FFD654;}
	.st1{fill:#AD7746;}
	.st2{fill:#855229;}
	.st3{fill:#FFF7D7;}
	.st4{fill:none;}
	.st5{fill:#45382F;}
</style>
<g id="XMLID_176_">
	<polygon id="XMLID_165_" class="st0" points="42.21,131.74 57.69,140.65 32.65,195.4 27.19,193.36 	"/>
	<g id="XMLID_168_">
		<g id="XMLID_169_">
			<path id="XMLID_173_" class="st1" d="M227.87,67.89C187.83,23.85,85.22,62.1,85.22,62.1l1.8-4.77c-3.29,2.91-4.93,4.77-4.93,4.77
				c-50.05,5.12-59.44,38.67-43.38,64.01c12.21,19.26,37.97,15.58,49.62,12.7c0-0.01,4.39-6.03,5.85-7.49
				c1.46-1.46,12.3-10.22,12.3-10.22s9.61,19.63,25.87,36.51c29.9,9.99,59.85,10.42,59.85,10.42c25.04-9.64,41.16-21.1,51.53-32.39
				C246.85,112.03,244.66,86.35,227.87,67.89z"/>
			<path id="XMLID_174_" class="st2" d="M94.19,131.32c-1.46,1.46-5.84,7.48-5.85,7.49c3.68-0.91,5.95-1.73,5.95-1.73
				c10.78,9.42,24.42,15.97,38.07,20.53c-16.26-16.87-25.87-36.51-25.87-36.51S95.65,129.86,94.19,131.32z"/>
		</g>
		<path id="XMLID_172_" class="st2" d="M262.28,86.06c0-8.13-8.76-62.88-77.27-62.88c-53.53,0-86.25,23.76-97.99,34.14l-1.8,4.77
			c0,0,102.61-38.25,142.65,5.79c16.79,18.46,18.98,44.14,15.87,67.74C264.35,113.21,262.28,91.47,262.28,86.06z"/>
	</g>
	<path id="XMLID_164_" class="st3" d="M42.94,240.29c-0.11-0.47-18.41-15.58,0.67-30.47c19.08-14.89,41.14,3.57,41.14,3.57
		s25.34-10.51,35.82,7.18c10.48,17.69-25.96,28.64-25.96,28.64s-6.26,31.6-35.04,20.8C30.79,259.21,42.94,240.29,42.94,240.29z"/>
	<path id="XMLID_305_" class="st4" d="M183.52,27.97c-54.55-1.57-85.58,24.69-96.39,36.06c-1.09,1.15-2.65,1.71-4.22,1.52
		c-8.47-1.01-17.14,0.62-25.06,4.72c-9.57,4.96-16.83,12.9-20.45,22.38c-3.54,9.27-3.15,18.89,1.1,27.11
		c7.86,15.18,27.07,21.51,45.09,15.47c1.53-0.75,11.2-5.79,17.81-16.64c1.44-2.36,4.52-3.11,6.88-1.67
		c2.36,1.44,3.11,4.52,1.67,6.88c-3.59,5.9-7.89,10.37-11.76,13.63c24.29,13.91,48.88,20.17,66.53,22.99
		c-9.11-7.29-13.45-14.51-13.73-14.99c-1.4-2.38-0.6-5.45,1.78-6.85c2.38-1.4,5.44-0.6,6.84,1.77c0.14,0.23,9.57,15.65,30.08,22.35
		c15.36-4.32,54.88-21.56,63.82-52.68c5.88-20.45,3.02-41.36-7.63-55.94C234.01,37.82,212.44,28.8,183.52,27.97z M59.75,120.31
		c-3.32,0-6-2.69-6-6s2.69-6,6-6c3.32,0,6,2.69,6,6S63.07,120.31,59.75,120.31z"/>
	<path id="XMLID_316_" class="st4" d="M32.65,186.1c6.63-11.26,14.86-26.52,20.58-41.48c-4.18-1.5-8.1-3.57-11.6-6.18
		C39.19,147.86,35.19,165.16,32.65,186.1z"/>
	<circle id="XMLID_339_" class="st5" cx="59.75" cy="114.31" r="6"/>
	<path id="XMLID_342_" class="st5" d="M183.8,17.96c-55.93-1.59-89.12,24.33-102.21,37.41c-9.66-0.68-19.41,1.38-28.35,6.01
		c-11.75,6.09-20.7,15.92-25.2,27.69c-4.58,11.97-4.02,24.5,1.57,35.29c1.11,2.15,2.4,4.15,3.83,6.02
		c-2.53,8.85-10.5,39.05-12.65,75.82c-0.13,2.24,1.25,4.3,3.38,5.03c0.53,0.18,1.08,0.27,1.62,0.27c1.62,0,3.18-0.79,4.13-2.18
		c0.92-1.35,21.81-32.03,33.12-62.29c7.71,1.06,15.9,0.34,23.87-2.36c0.01,0,0.03-0.01,0.04-0.01c0.78-0.26,1.56-0.55,2.34-0.85
		c8.67,5.26,17.38,9.56,25.86,13.08l-3.08,14.68l-27.01,1.92c-2.76,0.2-4.83,2.59-4.64,5.35c0.2,2.76,2.59,4.83,5.35,4.64
		l10.37-0.74l-2.43,1.49c-2.36,1.45-3.09,4.53-1.65,6.88c0.94,1.54,2.59,2.39,4.27,2.39c0.89,0,1.8-0.24,2.61-0.74l18.11-11.12
		l4.72,1.1c0.38,0.09,0.76,0.13,1.14,0.13c2.28,0,4.33-1.56,4.87-3.87c0.63-2.69-1.05-5.38-3.74-6.01l-1.96-0.45l2.52-11.99
		c25.75,9.22,48.21,11.47,59.03,12l-7.12,23.58l-28.65,2.24c-2.76,0.22-4.82,2.62-4.6,5.38c0.22,2.76,2.63,4.82,5.38,4.6l13.18-1.03
		l-6.05,4.09c-2.29,1.55-2.89,4.66-1.34,6.95c0.97,1.43,2.54,2.2,4.15,2.2c0.96,0,1.94-0.28,2.8-0.86l19.66-13.3l4.83,1.68
		c0.54,0.19,1.1,0.28,1.64,0.28c2.07,0,4.01-1.3,4.73-3.36c0.91-2.61-0.47-5.46-3.08-6.37l-2.66-0.93l7.85-26.01
		c11.73-3.79,57.86-20.94,68.78-58.93c6.72-23.4,3.29-47.55-9.17-64.61C244.36,35.02,224.4,19.12,183.8,17.96z M32.65,186.1
		c2.54-20.95,6.54-38.25,8.98-47.66c3.51,2.61,7.42,4.68,11.6,6.18C47.52,159.59,39.28,174.85,32.65,186.1z M253.51,110.01
		c-8.94,31.11-48.47,48.36-63.82,52.68c-20.51-6.7-29.94-22.12-30.08-22.35c-1.4-2.37-4.46-3.17-6.84-1.77
		c-2.38,1.4-3.18,4.47-1.78,6.85c0.28,0.48,4.62,7.7,13.73,14.99c-17.65-2.81-42.24-9.08-66.53-22.99
		c3.87-3.25,8.16-7.73,11.76-13.63c1.44-2.36,0.69-5.44-1.67-6.88c-2.36-1.44-5.44-0.69-6.88,1.67
		c-6.61,10.84-16.28,15.89-17.81,16.64c-18.02,6.03-37.22-0.3-45.09-15.47c-4.25-8.21-4.65-17.84-1.1-27.11
		c3.62-9.47,10.88-17.42,20.45-22.38c7.93-4.11,16.59-5.74,25.06-4.72c1.57,0.19,3.13-0.38,4.22-1.52
		c10.81-11.36,41.83-37.63,96.39-36.06c28.93,0.83,50.49,9.86,62.36,26.1C256.53,68.64,259.39,89.56,253.51,110.01z"/>
	<path id="XMLID_347_" class="st5" d="M126.34,220.17c-2.07-6.39-7.42-11.15-15.06-13.41c-6.97-2.06-15.16-1.79-23.07,0.77
		c-0.47,0.15-0.93,0.31-1.4,0.48c-1.59-1.48-3.45-2.81-5.57-3.95c-6.39-3.46-14.46-4.88-22.73-4.01
		c-18.06,1.91-31.1,13.79-29.7,27.04c0.57,5.4,3.44,10.08,7.86,13.59c-0.93,1.63-1.61,3.37-2.01,5.22
		c-2.83,13.03,8.85,26.25,26.6,30.1c3.13,0.68,6.28,1.02,9.34,1.02c4.88,0,9.56-0.85,13.69-2.54c7.38-3.01,12.23-8.28,13.65-14.84
		c0.41-1.89,0.51-3.79,0.33-5.66c1.54-0.32,3.07-0.73,4.59-1.22C120.13,247.18,130.45,232.86,126.34,220.17L126.34,220.17z
		 M88.15,257.53c-0.95,4.37-5.2,6.7-7.65,7.7c-4.81,1.96-11.05,2.33-17.13,1.01c-11.85-2.57-20.52-10.91-18.94-18.2
		c0.95-4.37,5.2-6.7,7.65-7.7c2.91-1.19,6.34-1.79,9.94-1.79c2.36,0,4.79,0.26,7.19,0.78C81.07,241.91,89.74,250.24,88.15,257.53z
		 M59.56,210.01c1.21-0.13,2.42-0.19,3.62-0.19c4.92,0,9.63,1.06,13.3,3.05c2.33,1.26,6.3,4.03,6.77,8.48
		c0.38,3.64-1.71,7.25-5.36,10.15c-2.07-0.79-4.26-1.44-6.55-1.94c-8.12-1.76-16.3-1.22-23.03,1.52c-1.66,0.68-3.18,1.47-4.58,2.37
		c-2.83-1.96-4.66-4.51-4.97-7.4C37.98,218.63,47.5,211.28,59.56,210.01z M87.22,236.52c4.33-4.61,6.61-10.28,5.98-16.22
		c-0.13-1.23-0.38-2.43-0.75-3.59c3.01-0.86,6.07-1.29,8.98-1.29c2.48,0,4.86,0.31,7,0.95c2.54,0.75,7,2.65,8.38,6.9
		c2.3,7.1-5.5,16.25-17.04,19.99c-1.63,0.53-3.29,0.93-4.93,1.2C92.96,241.52,90.38,238.83,87.22,236.52z"/>
</g>
</svg>
