<?xml version="1.0" encoding="utf-8"?>
<!-- Generator: Adobe Illustrator 23.0.6, SVG Export Plug-In . SVG Version: 6.00 Build 0)  -->
<svg version="1.1" id="Layer_1" xmlns="http://www.w3.org/2000/svg" xmlns:xlink="http://www.w3.org/1999/xlink" x="0px" y="0px"
	 viewBox="0 0 288 288" style="enable-background:new 0 0 288 288;" xml:space="preserve">
<style type="text/css">
	.st0{fill:#FFD654;}
	.st1{fill:#AD7746;}
	.st2{fill:#855229;}
	.st3{fill:none;}
	.st4{fill:#45382F;}
</style>
<g id="XMLID_179_">
	<path id="XMLID_156_" class="st0" d="M213.11,90.92c0.58-0.66,47.43,0,47.43,0l-45.96,19.3L213.11,90.92z"/>
	<g id="XMLID_154_">
		<path id="XMLID_159_" class="st1" d="M211.23,87.36c-10.9-30.2-62.3-40.37-80.6,10.31c-0.1,0.28-4.23-1.08-10.91-2.51l1.72,3.34
			c0,0-62.83-3.21-81.71,52.94c-7.17,21.31-2.74,41.1,5.51,57.46c15.09,7.93,34.18,10.89,52.86,7.55c0,0,33.4,9.44,56.92,0
			c0,0-0.29-6.83,1.74-6.83c2.03,0,30.89-2.16,37.17-5.52l-7.58-15.68c0,0,15.71-19.17,16.58-51.98
			C202.94,136.44,222.14,117.56,211.23,87.36z"/>
		<path id="XMLID_160_" class="st2" d="M39.74,151.43c18.88-56.15,81.71-52.94,81.71-52.94l-1.72-3.34
			c-21.23-4.56-68.23-9.87-93.64,34.32c-21.2,36.87-7.06,65.65,19.16,79.43C37,192.54,32.57,172.75,39.74,151.43z"/>
	</g>
	<path id="XMLID_296_" class="st3" d="M174.91,202.74c5.12-0.48,9.51-1.38,12.48-2.12c-0.67-2.17-1.42-4.01-2.13-5.52
		C182.23,197.84,178.8,200.43,174.91,202.74z"/>
	<path id="XMLID_306_" class="st3" d="M219.34,93.42c0.68,2.74,1.14,5.76,1.22,9.04c13.18-2.85,24-6.27,32.01-9.24
		C237.82,92.46,224.04,93.13,219.34,93.42z"/>
	<path id="XMLID_310_" class="st3" d="M167.36,68.05c-26.69,3.93-30.18,28.85-30.32,29.9c-0.19,1.46-1.06,2.76-2.35,3.48
		c-1.29,0.72-2.84,0.79-4.18,0.18c-0.14-0.06-14.42-6.4-33.23-6.82c-0.69-0.02-1.39-0.02-2.07-0.02c-23.87,0-43.83,9.48-59.37,28.2
		c-17.31,20.85-18.8,48.17-3.81,69.6c14.83,21.19,40.43,29.17,65.22,20.32c0.81-0.29,1.69-0.35,2.54-0.17
		c9.66,2.07,36.45,5.86,49.94,0.07c0.06-1.4,0-3.35-0.49-5.45c0-0.01,0-0.02-0.01-0.04c-2.05-7.72-10.12-15.06-13.47-17.51
		c-2.07-1.51-2.53-4.42-1.02-6.49c1.51-2.07,4.42-2.53,6.49-1.02c0.55,0.4,10.74,7.93,15.43,18.37c10.57-3.24,19.26-8.6,26.01-16.02
		c0.08-0.1,0.17-0.2,0.27-0.3c4.93-5.5,8.81-12.12,11.61-19.84c2.66-7.32,3.83-14.34,4.33-19.64c-5.02,3.15-11.97,6.19-20.5,6.69
		c-0.09,0.01-0.19,0.01-0.28,0.01c-2.44,0-4.49-1.9-4.63-4.37c-0.15-2.56,1.8-4.76,4.37-4.91c13.27-0.78,21.91-9.68,23.04-10.91
		c11.42-15.9,13.47-31.72,5.74-44.66C198.85,73.68,182.34,65.85,167.36,68.05z M180.79,96.49c-3.08,0-5.57-2.5-5.57-5.57
		c0-3.08,2.5-5.57,5.57-5.57c3.08,0,5.57,2.5,5.57,5.57C186.36,94,183.87,96.49,180.79,96.49z"/>
	<path id="XMLID_324_" class="st4" d="M271.67,85.76c-24.23-3.75-53.49-1.59-54.73-1.49c-0.33,0.03-0.65,0.09-0.95,0.17
		c-0.46-0.9-0.93-1.74-1.39-2.51c-9.62-16.1-30.06-25.8-48.59-23.07c-17.66,2.6-27.12,12.79-31.95,20.87
		c-2.51,4.21-4.05,8.28-4.96,11.4c-6.25-2.14-17.56-5.26-31.23-5.62c-19.2-0.5-46.78,4.55-69.17,31.53
		c-20.06,24.16-21.74,55.9-4.28,80.86c7.92,11.32,19.28,19.99,32,24.41c6.67,2.32,13.62,3.48,20.68,3.48
		c7.3,0,14.71-1.24,22.04-3.71c6.63,1.3,36.12,6.5,53.59-0.48l11.15,13.93l-1.07,2.43c-1.03,2.35,0.03,5.09,2.38,6.12
		c0.61,0.27,1.24,0.39,1.87,0.39c1.79,0,3.49-1.04,4.26-2.78l1.56-3.56l12.79-6.98c2.25-1.23,3.08-4.05,1.85-6.31
		c-1.23-2.25-4.05-3.08-6.3-1.85l-6.66,3.63l0.38-4.87c0.2-2.56-1.71-4.79-4.27-4.99c-2.55-0.2-4.79,1.71-4.99,4.27l-0.13,1.69
		l-6.6-8.25c0.06-0.73,0.11-1.61,0.11-2.61c3,0.36,5.96,0.52,8.8,0.52c12.25,0,22.42-2.81,25.65-3.81l18.68,4.94l0.59,2.59
		c0.49,2.16,2.41,3.62,4.53,3.62c0.34,0,0.69-0.04,1.03-0.12c2.5-0.57,4.07-3.06,3.5-5.56l-0.86-3.79l6.12-13.22
		c1.08-2.33,0.06-5.09-2.27-6.17c-2.33-1.08-5.09-0.06-6.17,2.26l-3.19,6.88l-2.6-4.14c-1.36-2.17-4.23-2.83-6.41-1.47
		c-2.17,1.36-2.83,4.23-1.47,6.4l0.9,1.44l-9.06-2.39c-1.43-5.32-3.37-9.36-4.83-11.93c5.49-6.82,9.07-14.09,11.4-20.59
		c4.91-13.71,5.21-26.2,5.13-30.7c6.42-8.96,9.78-17.19,11.2-24.5c33.35-6.83,52.64-17.26,53.45-17.7c1.75-0.96,2.69-2.92,2.35-4.88
		C275.19,87.59,273.64,86.06,271.67,85.76z M174.91,202.74c3.89-2.31,7.33-4.89,10.35-7.64c0.71,1.51,1.46,3.36,2.13,5.52
		C184.42,201.35,180.03,202.25,174.91,202.74z M200.88,131.36c-1.13,1.23-9.77,10.13-23.04,10.91c-2.56,0.15-4.52,2.35-4.37,4.91
		c0.15,2.47,2.19,4.37,4.63,4.37c0.09,0,0.18,0,0.28-0.01c8.54-0.5,15.48-3.54,20.5-6.69c-0.5,5.3-1.68,12.32-4.33,19.64
		c-2.81,7.72-6.69,14.34-11.61,19.84c-0.09,0.1-0.18,0.2-0.27,0.3c-6.75,7.43-15.44,12.79-26.01,16.02
		c-4.7-10.44-14.88-17.97-15.43-18.37c-2.07-1.51-4.98-1.06-6.49,1.02c-1.51,2.07-1.06,4.98,1.02,6.49
		c3.35,2.44,11.42,9.79,13.47,17.51c0,0.01,0,0.02,0.01,0.04c0.49,2.09,0.55,4.05,0.49,5.45c-13.5,5.79-40.28,2.01-49.94-0.07
		c-0.84-0.18-1.72-0.12-2.54,0.17c-24.79,8.85-50.39,0.88-65.22-20.32c-14.99-21.43-13.49-48.75,3.81-69.6
		c15.54-18.72,35.5-28.2,59.37-28.2c0.69,0,1.38,0.01,2.07,0.02c18.81,0.43,33.09,6.76,33.23,6.82c1.34,0.61,2.9,0.54,4.18-0.18
		c1.29-0.72,2.16-2.01,2.35-3.48c0.14-1.06,3.62-25.97,30.32-29.9c14.98-2.2,31.49,5.63,39.26,18.64
		C214.36,99.63,212.31,115.45,200.88,131.36z M220.57,102.46c-0.08-3.28-0.54-6.3-1.22-9.04c4.69-0.28,18.47-0.96,33.23-0.2
		C244.56,96.18,233.75,99.61,220.57,102.46z"/>
	<circle id="XMLID_327_" class="st4" cx="180.79" cy="90.92" r="5.57"/>
</g>
</svg>
