<?xml version="1.0" encoding="utf-8"?>
<!-- Generator: Adobe Illustrator 23.0.6, SVG Export Plug-In . SVG Version: 6.00 Build 0)  -->
<svg version="1.1" id="Layer_1" xmlns="http://www.w3.org/2000/svg" xmlns:xlink="http://www.w3.org/1999/xlink" x="0px" y="0px"
	 viewBox="0 0 288 288" style="enable-background:new 0 0 288 288;" xml:space="preserve">
<style type="text/css">
	.st0{fill:#FFD654;}
	.st1{fill:#AD7746;}
	.st2{fill:#855229;}
	.st3{fill:none;}
	.st4{fill:#45382F;}
</style>
<g id="XMLID_180_">
	<path id="XMLID_157_" class="st0" d="M179.64,50.05c0.67,0,58.93,19.49,58.93,19.49l-4.93,8.74l-58.26-11.2L179.64,50.05z"/>
	<g id="XMLID_155_">
		<path id="XMLID_162_" class="st1" d="M74.77,159.3c3.93,44.29,39.86,64.31,69.08,73.31c9.53-2.1,18.64-6.06,26.6-11.93
			c37.2-27.44,58.13-100.27-18.71-134.11c0,0,21.18-3.54,25.54-31.52c4.37-27.98-33.95-60.58-72.27-28.65
			C105.02,26.41,68.05,83.46,74.77,159.3z"/>
		<path id="XMLID_163_" class="st2" d="M57.13,181.36c10.87,41.39,51.69,58.95,86.73,51.24c-29.22-9-65.16-29.02-69.08-73.31
			c-6.72-75.84,30.25-132.89,30.25-132.89C66.71,58.34,43.3,128.72,57.13,181.36z"/>
	</g>
	<path id="XMLID_313_" class="st3" d="M128.56,228.23c39.38,0,71.42-32.04,71.42-71.42c0-28.56-16.81-54.13-42.92-65.49
		c-3.83,1.45-8.61,2.72-14,3.02c-0.1,0.01-0.2,0.01-0.3,0.01c-2.84,0-5.21-2.22-5.37-5.08c-0.16-2.97,2.11-5.5,5.07-5.67
		c9.59-0.53,16.84-5.19,17.87-5.88c7.83-6.5,12.51-16.22,12.51-26.57c0-19.02-15.48-34.5-34.5-34.5c-3.52,0-6.99,0.53-10.32,1.57
		c-0.01,0-0.02,0.01-0.03,0.01c-0.04,0.01-0.08,0.03-0.12,0.04c-1.65,0.53-3.29,1.19-4.87,1.98c-0.04,0.02-0.07,0.04-0.11,0.05
		c-16.31,7.66-32.73,25.46-45.06,48.84c-13.16,24.96-20.41,53.65-20.41,80.8c0,0.16-0.01,0.34-0.02,0.5
		c-0.19,2.15-0.29,4.3-0.29,6.38C57.13,196.19,89.17,228.23,128.56,228.23z M149.94,36.31c2.83,0,5.13,2.3,5.13,5.13
		c0,2.83-2.3,5.13-5.13,5.13c-2.83,0-5.13-2.3-5.13-5.13C144.81,38.6,147.1,36.31,149.94,36.31z"/>
	<path id="XMLID_314_" class="st3" d="M182.09,62.69c14.92,4.25,31.26,6.61,43.64,7.9C210,62.13,192.34,57.2,183.42,55.05
		C183.19,57.65,182.75,60.21,182.09,62.69z"/>
	<path id="XMLID_315_" class="st3" d="M185.84,46.86c0.09,0.23,0.18,0.46,0.24,0.7C186.02,47.32,185.93,47.08,185.84,46.86z"/>
	<path id="XMLID_328_" class="st4" d="M149.94,46.57c2.83,0,5.13-2.3,5.13-5.13c0-2.83-2.3-5.13-5.13-5.13
		c-2.83,0-5.13,2.3-5.13,5.13C144.81,44.27,147.1,46.57,149.94,46.57z"/>
	<path id="XMLID_331_" class="st4" d="M103.57,235.1l-0.71,23.36l-22.58-3.11c-2.94-0.4-5.66,1.65-6.06,4.6
		c-0.4,2.94,1.65,5.66,4.6,6.06l3.74,0.51l-2.57,0.76c-2.85,0.84-4.48,3.83-3.63,6.68c0.69,2.34,2.83,3.86,5.16,3.86
		c0.5,0,1.02-0.07,1.53-0.22l24.6-7.27l5.47,2.53c0.73,0.34,1.5,0.5,2.26,0.5c2.03,0,3.97-1.16,4.88-3.12
		c1.25-2.69,0.08-5.89-2.62-7.14l-4.08-1.89l0.72-23.48c4.65,0.82,9.43,1.25,14.3,1.25c3.95,0,7.83-0.29,11.63-0.83l0.7,23.06
		l-4.08,1.89c-2.69,1.25-3.87,4.45-2.62,7.14c0.91,1.96,2.85,3.12,4.88,3.12c0.76,0,1.53-0.16,2.26-0.5l5.47-2.53l24.6,7.27
		c0.51,0.15,1.02,0.22,1.53,0.22c2.32,0,4.46-1.52,5.16-3.86c0.84-2.85-0.79-5.84-3.63-6.68l-2.57-0.76l3.74-0.51
		c2.94-0.41,5-3.12,4.6-6.06c-0.4-2.94-3.12-5-6.06-4.6l-22.58,3.11l-0.69-22.55c34.5-9.75,59.86-41.52,59.86-79.1
		c0-30.2-16.33-57.5-42.3-71.88c3.92-3.5,7.17-7.64,9.65-12.2c30.41,8.88,65.66,10.04,67.18,10.08c0.05,0,0.11,0,0.16,0
		c2.21,0,4.2-1.35,5.01-3.42c0.83-2.12,0.24-4.52-1.47-6.02c-20.45-17.82-52.63-26.49-65.94-29.47
		c-3.47-21.53-22.18-38.02-44.67-38.02c-4.57,0-9.08,0.68-13.41,2.02c-0.08,0.02-0.16,0.05-0.24,0.07
		c-0.06,0.02-0.12,0.04-0.16,0.06c-2.13,0.68-4.23,1.54-6.25,2.54c-18.36,8.64-36.56,28.15-49.95,53.53
		c-13.93,26.4-21.61,56.79-21.65,85.61c-0.2,2.39-0.31,4.77-0.31,7.09C46.38,193.42,70.44,224.5,103.57,235.1z M182.09,62.69
		c0.66-2.49,1.1-5.04,1.33-7.64c8.92,2.15,26.58,7.08,42.31,15.53C213.36,69.3,197.01,66.94,182.09,62.69z M186.08,47.56
		c-0.06-0.24-0.14-0.48-0.24-0.7C185.93,47.08,186.02,47.32,186.08,47.56z M57.42,150.43c0.01-0.16,0.02-0.34,0.02-0.5
		c0-27.15,7.25-55.85,20.41-80.8c12.33-23.38,28.76-41.18,45.06-48.84c0.04-0.02,0.07-0.03,0.11-0.05c1.58-0.79,3.22-1.45,4.87-1.98
		c0.04-0.01,0.08-0.02,0.12-0.04c0.01,0,0.02-0.01,0.03-0.01c3.33-1.04,6.8-1.57,10.32-1.57c19.02,0,34.5,15.48,34.5,34.5
		c0,10.35-4.68,20.07-12.51,26.57c-1.03,0.7-8.28,5.36-17.87,5.88c-2.97,0.16-5.24,2.7-5.07,5.67c0.16,2.86,2.53,5.08,5.37,5.08
		c0.1,0,0.2,0,0.3-0.01c5.39-0.3,10.16-1.57,14-3.02c26.11,11.37,42.92,36.93,42.92,65.49c0,39.38-32.04,71.42-71.42,71.42
		s-71.42-32.04-71.42-71.42C57.13,154.73,57.23,152.59,57.42,150.43z"/>
</g>
</svg>
