<?xml version="1.0" encoding="utf-8"?>
<!-- Generator: Adobe Illustrator 23.0.6, SVG Export Plug-In . SVG Version: 6.00 Build 0)  -->
<svg version="1.1" id="Layer_1" xmlns="http://www.w3.org/2000/svg" xmlns:xlink="http://www.w3.org/1999/xlink" x="0px" y="0px"
	 viewBox="0 0 288 288" style="enable-background:new 0 0 288 288;" xml:space="preserve">
<style type="text/css">
	.st0{fill:#FFD654;}
	.st1{fill:#AD7746;}
	.st2{fill:#855229;}
	.st3{fill:none;}
	.st4{fill:#45382F;}
</style>
<g id="XMLID_171_">
	<polygon id="XMLID_175_" class="st0" points="26.53,86.84 74.24,67.09 76.62,89.75 	"/>
	<g id="XMLID_170_">
		<path id="XMLID_177_" class="st1" d="M232.93,143.79c-37.41-84.81-88.75-90.83-88.75-90.83s0.69-0.97,1.75-2.44
			c-0.46-0.04-0.71-0.05-0.71-0.05l-3.33-2.91c-20.16-16.21-57.99-16-66.31,16.42c-8.31,32.43,24.73,41.78,24.73,41.78
			s-14.86,30.87,12.26,73.75c27.13,42.88,78.26,36.78,78.26,36.78l17.77,4.61l4.99,4.12l2.49-4.12c8.8-2.96,16-6.99,21.9-11.59
			C241.91,185.28,241.21,162.55,232.93,143.79z"/>
		<path id="XMLID_178_" class="st2" d="M264.73,156.47c0-94.08-108.99-105.15-118.81-105.96c-1.06,1.47-1.75,2.44-1.75,2.44
			s51.34,6.03,88.75,90.83c8.28,18.76,8.98,41.49,5.07,65.51C264.45,188.68,264.73,156.47,264.73,156.47z"/>
	</g>
	<path id="XMLID_307_" class="st3" d="M36.86,85.93c13.95-0.14,27.02-1.43,33.38-2.15c-0.79-3.03-1.24-6.18-1.34-9.39
		C55.72,78.19,44.92,82.37,36.86,85.93z"/>
	<path id="XMLID_357_" class="st4" d="M202.27,56.36c-17.62-8.07-37.11-11.7-57.95-10.78c-8.08-9.6-20.12-15.26-32.72-15.26
		c-20.36,0-37.43,14.32-41.69,33.42C35.19,73.24,15.53,85.48,14.7,86c-1.81,1.14-2.69,3.3-2.19,5.38c0.5,2.08,2.27,3.61,4.39,3.8
		c5.77,0.53,11.77,0.74,17.65,0.74c17.74,0,34.3-1.9,39.47-2.55c4.4,8.12,11.39,14.75,20.09,18.65
		c-0.91,12.82-1.52,54.08,24.63,83.23c8.31,9.26,18.48,16.35,30.45,21.26c1.08,1.09,6.57,6.37,15.21,10.15l0.65,11.28l-19.41,0.71
		c-2.75,0.1-4.9,2.42-4.8,5.17c0.1,2.75,2.41,4.92,5.17,4.8l3.39-0.12c-0.4,1.17-0.37,2.48,0.18,3.69c0.84,1.84,2.65,2.92,4.54,2.92
		c0.69,0,1.39-0.14,2.06-0.45l14.8-6.74l3.51,0.63c0.3,0.05,0.59,0.08,0.88,0.08c2.37,0,4.47-1.7,4.91-4.11
		c0.48-2.71-1.32-5.3-4.03-5.79l-1.17-0.21l-0.65-11.27c2.08-0.59,4.81-1.55,8.28-3.08c4.16,0.35,8.45,0.52,12.87,0.52
		c1.09,0,2.19-0.01,3.29-0.03c0.28-0.01,0.55-0.03,0.82-0.08c2.6,2.07,5.31,3.74,8.11,5.03l1.34,18.35l-24.55,4.27
		c-2.71,0.47-4.53,3.06-4.06,5.77c0.47,2.71,3.05,4.53,5.77,4.06l4.71-0.82c-0.47,1.33-0.38,2.85,0.38,4.16
		c0.92,1.6,2.6,2.5,4.33,2.5c0.85,0,1.7-0.21,2.49-0.67l17.01-9.81l4,0.97c0.4,0.1,0.79,0.14,1.18,0.14c2.25,0,4.29-1.53,4.84-3.81
		c0.65-2.68-1-5.37-3.67-6.02l-2.41-0.58l-1.34-18.44c10.21-3.9,36.7-17.6,48.09-57.63c7.16-25.14-1.36-57.72-21.71-83
		C232.97,75.08,218.47,63.78,202.27,56.36z M256.32,169.32c-5.17,18.17-14.29,32.43-27.11,42.4c-7.26,5.65-13.73,8.24-16.46,9.18
		c-6.64-2.82-11.81-8.43-15.06-12.79c-0.98-1.31-2.48-2.01-4.01-2.01c-0.95,0-1.91,0.27-2.76,0.84c-2.21,1.47-2.88,4.41-1.53,6.69
		l0.59,1c-27.76-1.02-49.19-9.74-63.78-25.98c-22.94-25.53-22.87-63.03-22.16-75.23c2.33,0.31,4.86,0.51,7.51,0.51
		c4.05,0,8.39-0.46,12.76-1.68c2.65-0.74,4.2-3.5,3.46-6.15c-0.74-2.65-3.49-4.2-6.15-3.46c-12.61,3.53-25.53-1.12-27.51-1.89
		c-9.36-5.9-15.26-16.28-15.26-27.69c0-18.06,14.69-32.75,32.75-32.75c10.36,0,20.23,4.99,26.39,13.36
		c0.95,1.29,2.48,2.07,4.08,2.03c0.14,0,0.28-0.01,0.42-0.02c51.49-3.12,80.97,23.49,93.96,39.63
		C254.81,118.14,262.62,147.19,256.32,169.32z M36.86,85.93c8.06-3.56,18.85-7.74,32.04-11.54c0.1,3.22,0.56,6.36,1.34,9.39
		C63.88,84.5,50.82,85.78,36.86,85.93z"/>
	<circle id="XMLID_359_" class="st4" cx="101.46" cy="62.3" r="5.98"/>
</g>
</svg>
