<?xml version="1.0" encoding="utf-8"?>
<!-- Generator: Adobe Illustrator 23.0.6, SVG Export Plug-In . SVG Version: 6.00 Build 0)  -->
<svg version="1.1" id="Layer_1" xmlns="http://www.w3.org/2000/svg" xmlns:xlink="http://www.w3.org/1999/xlink" x="0px" y="0px"
	 viewBox="0 0 288 288" style="enable-background:new 0 0 288 288;" xml:space="preserve">
<style type="text/css">
	.st0{fill:#FFD654;}
	.st1{fill:#AD7746;}
	.st2{fill:#855229;}
	.st3{fill:none;}
	.st4{fill:#45382F;}
</style>
<g id="XMLID_182_">
	<polygon id="XMLID_184_" class="st0" points="57.12,133.76 61.73,151.16 22.78,156.52 	"/>
	<g id="XMLID_183_">
		<path id="XMLID_186_" class="st1" d="M212.65,92.1c-44.84-6.94-96.62,7.95-96.62,7.95s0.54-1.44,1.4-3.73
			c-3.82,2.26-5.74,3.73-5.74,3.73c-16.2-10.85-69.72-1.59-54.57,36.89s59.77,14.22,59.77,14.22
			c22.56,37.94,70.59,37.57,70.59,37.57l23.14,9.55c18.56,0.07,32.48-6.29,42.13-16.17c0.06-1.18,0.28-2.43,0.68-3.79
			C259.51,158.06,257.49,99.05,212.65,92.1z"/>
		<path id="XMLID_187_" class="st2" d="M215.54,73.01c-52.57,0-85.57,15.9-98.12,23.31c-0.86,2.29-1.4,3.73-1.4,3.73
			s51.78-14.89,96.62-7.95c44.84,6.94,46.86,65.96,40.79,86.21c-0.41,1.35-0.62,2.61-0.68,3.79
			C285.8,148.24,268.61,73.01,215.54,73.01z"/>
	</g>
	<path id="XMLID_318_" class="st3" d="M54.6,140.97c-8.38,3.51-15.41,7.07-20.98,10.19c10.02-1.38,19-3.31,23.49-4.34
		C56.12,144.94,55.28,142.98,54.6,140.97z"/>
	<path id="XMLID_365_" class="st4" d="M208.2,67.06c-33.46-0.93-62.9,3.51-97.19,27.88c-7.78-2.56-31.79-8.41-49.55,9.35
		c-6.75,6.75-9.72,17.16-8.79,27.46c-25.63,10.5-39.56,21.52-40.16,22c-1.55,1.24-2.14,3.33-1.46,5.19
		c0.66,1.84,2.41,3.05,4.35,3.05c0.03,0,0.06,0,0.09,0c21.25-0.43,45.89-6.65,46.93-6.92c0.2-0.05,0.39-0.12,0.57-0.19
		c5.26,5.37,12.08,8.72,19.98,9.76c9.66,1.27,20.59-0.93,32.52-6.55c2.39,3.9,6.78,9.92,13.82,15.86
		c8.24,6.95,21.55,14.87,41.21,17.76v7.22l-20.32-1.16c-2.55-0.14-4.74,1.81-4.88,4.36c-0.15,2.55,1.81,4.74,4.36,4.88l0.4,0.02
		c-0.08,0.5-0.07,1.02,0.03,1.55c0.42,2.22,2.36,3.77,4.54,3.77c0.29,0,0.58-0.03,0.87-0.08l19.59-3.72l5.04,1.04
		c0.32,0.07,0.63,0.1,0.94,0.1c2.15,0,4.08-1.5,4.53-3.69c0.52-2.5-1.09-4.95-3.59-5.47l-2.25-0.47v-7.42
		c2.13,0.12,4.32,0.19,6.57,0.19c5.03,4.76,12.07,8.96,21.76,10.44v10.52l-25.97-1.48c-2.55-0.15-4.74,1.81-4.88,4.36
		c-0.15,2.55,1.81,4.74,4.36,4.88l1.77,0.1c-0.34,0.81-0.46,1.73-0.28,2.66c0.42,2.22,2.36,3.77,4.54,3.77
		c0.29,0,0.58-0.03,0.87-0.08l24.19-4.6l6.38,1.32c0.32,0.07,0.63,0.1,0.94,0.1c2.15,0,4.08-1.51,4.53-3.69
		c0.52-2.5-1.09-4.95-3.59-5.47l-2.68-0.55l-0.9-0.19v-2.45v-9.15c3.52-0.36,7.91-1.17,12.82-2.88c10.91-3.8,26.7-12.96,40.03-35.05
		c10.22-16.94,10-36.97-0.61-56.39C256.69,85.32,230.85,67.68,208.2,67.06z M227.67,191.53c-10.08,3.63-17.54,2.69-17.62,2.68
		c-8.24-1.14-14.05-4.82-18.07-8.87c-0.2-0.25-0.42-0.48-0.66-0.69c-5.52-5.9-7.4-12.33-7.54-12.83c-0.67-2.46-3.2-3.92-5.67-3.26
		c-2.47,0.66-3.93,3.2-3.27,5.67c0.11,0.4,1.19,4.27,4.02,9.09c-17.22-1.2-31.71-6.61-43.19-16.13
		c-6.61-5.49-10.55-11.08-12.49-14.3c2.99-2.08,5.9-4.47,8.26-7.15c1.69-1.92,1.51-4.84-0.41-6.53c-1.92-1.69-4.84-1.51-6.53,0.41
		c-5.82,6.6-17.3,11.92-20.63,13.22c-16.04,5.48-29.03,3.07-36.54-7.14c-7.72-10.49-7.39-26.78,0.7-34.87
		c6.87-6.88,15.9-10.08,26.84-9.54c8.52,0.43,15.05,3.07,15.11,3.1c1.49,0.62,3.2,0.42,4.51-0.53
		c33.03-24.09,61.26-28.43,93.48-27.55c19.25,0.53,42.28,16.5,53.56,37.14c5.19,9.5,12.21,28.27,0.81,47.16
		C252.89,176.24,241.23,186.65,227.67,191.53z M54.6,140.97c0.67,2.01,1.51,3.97,2.51,5.85c-4.49,1.03-13.47,2.96-23.49,4.34
		C39.2,148.04,46.23,144.48,54.6,140.97z"/>
	<path id="XMLID_368_" class="st4" d="M76.83,115.07c-2.66,0-4.82,2.16-4.82,4.81c0,2.66,2.16,4.81,4.82,4.81
		c2.66,0,4.81-2.16,4.81-4.81C81.64,117.23,79.49,115.07,76.83,115.07z"/>
</g>
</svg>
